# xmcd CD database file
#
# Track frame offsets:
#	150
#	26457
#	48502
#	72815
#	90407
#	130275
#	158077
#	181330
#	243622
#
# Disc length: 3645 seconds
#
# Revision: 9
# Processed by: cddbd v1.5.2PL0 Copyright (c) Steve Scherf et al.
# Submitted via: CDex 1.70beta2
#
DISCID=6f0e3b09
DTITLE=TWO-MIX Single Collection - TWO-MIX Single Collection - Baroque Best
DYEAR=2008
DGENRE=Salsa
TTITLE0=Living Daylights
TTITLE1=Rhythm Generation
TTITLE2=Summer Planet No.1
TTITLE3=Rhythm Emotion
TTITLE4=Last Impression
TTITLE5=Beat Of Destiny
TTITLE6=Believe My Blavve Heart
TTITLE7=WO-MIX??Singles 1995-1998
TTITLE8=Truth (Ballad Style) - A Great Detective Of Love
EXTD=YEAR: 2008
EXTT0=
EXTT1=
EXTT2=
EXTT3=
EXTT4=
EXTT5=
EXTT6=
EXTT7=
EXTT8=
PLAYORDER=
